<svg width="25" height="24" viewBox="0 0 25 24" fill="none" xmlns="http://www.w3.org/2000/svg">
<path fill-rule="evenodd" clip-rule="evenodd" d="M3 17C1.89543 17 1 16.1046 1 15L1 5C1 3.89543 1.89543 3 3 3L19 3C20.1046 3 21 3.89543 21 5V15C21 16.1046 20.1046 17 19 17H3Z" stroke="white" stroke-linecap="round" stroke-linejoin="round"/>
<path fill-rule="evenodd" clip-rule="evenodd" d="M6 20C4.89543 20 4 19.1046 4 18L4 8C4 6.89543 4.89543 6 6 6L22 6C23.1046 6 24 6.89543 24 8V18C24 19.1046 23.1046 20 22 20H6Z" fill="#656871" stroke="white" stroke-linecap="round" stroke-linejoin="round"/>
<path fill-rule="evenodd" clip-rule="evenodd" d="M14 16C15.6569 16 17 14.6569 17 13C17 11.3431 15.6569 10 14 10C12.3431 10 11 11.3431 11 13C11 14.6569 12.3431 16 14 16Z" stroke="white" stroke-linecap="round" stroke-linejoin="round"/>
</svg>
