<svg width="24" height="24" viewBox="0 0 24 24" fill="none" xmlns="http://www.w3.org/2000/svg">
<path fill-rule="evenodd" clip-rule="evenodd" d="M5 18C3.89543 18 3 17.1046 3 16L3 6C3 4.89543 3.89543 4 5 4L21 4C22.1046 4 23 4.89543 23 6V16C23 17.1046 22.1046 18 21 18H5Z" stroke="white" stroke-linecap="round" stroke-linejoin="round"/>
<path fill-rule="evenodd" clip-rule="evenodd" d="M3 20C1.89543 20 1 19.1046 1 18L1 8C1 6.89543 1.89543 6 3 6L19 6C20.1046 6 21 6.89543 21 8V18C21 19.1046 20.1046 20 19 20H3Z" fill="black" stroke="white" stroke-linecap="round" stroke-linejoin="round"/>
<path d="M10 16L12 13L10 10" stroke="white" stroke-linecap="round" stroke-linejoin="round"/>
</svg>
